<mxfile host="app.diagrams.net" modified="2024-04-21T15:12:19.201Z" agent="Mozilla/5.0 (Windows NT 10.0; Win64; x64) AppleWebKit/537.36 (KHTML, like Gecko) Chrome/123.0.0.0 Safari/537.36" etag="B_t9XH6fXmBa1IN1BwxK" version="24.2.7" type="device">
  <diagram name="PÃ¡gina-1" id="-loPkzcuPb7qkBysw7mn">
    <mxGraphModel dx="1434" dy="780" grid="1" gridSize="10" guides="1" tooltips="1" connect="1" arrows="1" fold="1" page="1" pageScale="1" pageWidth="827" pageHeight="1169" math="0" shadow="0">
      <root>
        <mxCell id="0" />
        <mxCell id="1" parent="0" />
        <mxCell id="aY2KS8_h0rCA1LLG4cvc-1" value="" style="rounded=0;whiteSpace=wrap;html=1;" vertex="1" parent="1">
          <mxGeometry x="80" y="80" width="680" height="780" as="geometry" />
        </mxCell>
        <mxCell id="aY2KS8_h0rCA1LLG4cvc-2" value="" style="rounded=0;whiteSpace=wrap;html=1;" vertex="1" parent="1">
          <mxGeometry x="80" y="80" width="680" height="70" as="geometry" />
        </mxCell>
        <mxCell id="aY2KS8_h0rCA1LLG4cvc-3" value="" style="ellipse;whiteSpace=wrap;html=1;aspect=fixed;" vertex="1" parent="1">
          <mxGeometry x="150" y="87.5" width="55" height="55" as="geometry" />
        </mxCell>
        <mxCell id="aY2KS8_h0rCA1LLG4cvc-4" value="Text" style="text;html=1;align=center;verticalAlign=middle;whiteSpace=wrap;rounded=0;" vertex="1" parent="1">
          <mxGeometry x="470" y="100" width="60" height="30" as="geometry" />
        </mxCell>
        <mxCell id="aY2KS8_h0rCA1LLG4cvc-5" value="Text" style="text;html=1;align=center;verticalAlign=middle;whiteSpace=wrap;rounded=0;" vertex="1" parent="1">
          <mxGeometry x="540" y="100" width="60" height="30" as="geometry" />
        </mxCell>
        <mxCell id="aY2KS8_h0rCA1LLG4cvc-6" value="Text" style="text;html=1;align=center;verticalAlign=middle;whiteSpace=wrap;rounded=0;" vertex="1" parent="1">
          <mxGeometry x="670" y="100" width="60" height="30" as="geometry" />
        </mxCell>
        <mxCell id="aY2KS8_h0rCA1LLG4cvc-7" value="Text" style="text;html=1;align=center;verticalAlign=middle;whiteSpace=wrap;rounded=0;" vertex="1" parent="1">
          <mxGeometry x="600" y="100" width="60" height="30" as="geometry" />
        </mxCell>
        <mxCell id="aY2KS8_h0rCA1LLG4cvc-8" value="" style="ellipse;whiteSpace=wrap;html=1;aspect=fixed;" vertex="1" parent="1">
          <mxGeometry x="180" y="200" width="80" height="80" as="geometry" />
        </mxCell>
        <mxCell id="aY2KS8_h0rCA1LLG4cvc-9" value="&lt;h1 style=&quot;margin-top: 0px;&quot;&gt;Heading&lt;/h1&gt;&lt;p&gt;Lorem ipsum dolor sit amet, consectetur adipisicing elit, sed do eiusmod tempor incididunt ut labore et dolore magna aliqua.&lt;/p&gt;" style="text;html=1;whiteSpace=wrap;overflow=hidden;rounded=0;" vertex="1" parent="1">
          <mxGeometry x="350" y="180" width="180" height="120" as="geometry" />
        </mxCell>
        <mxCell id="aY2KS8_h0rCA1LLG4cvc-10" value="" style="rounded=0;whiteSpace=wrap;html=1;" vertex="1" parent="1">
          <mxGeometry x="190" y="345" width="120" height="60" as="geometry" />
        </mxCell>
        <mxCell id="aY2KS8_h0rCA1LLG4cvc-11" value="" style="rounded=0;whiteSpace=wrap;html=1;" vertex="1" parent="1">
          <mxGeometry x="360" y="345" width="120" height="60" as="geometry" />
        </mxCell>
        <mxCell id="aY2KS8_h0rCA1LLG4cvc-12" value="" style="rounded=0;whiteSpace=wrap;html=1;" vertex="1" parent="1">
          <mxGeometry x="530" y="345" width="120" height="60" as="geometry" />
        </mxCell>
        <mxCell id="aY2KS8_h0rCA1LLG4cvc-13" value="" style="rounded=1;whiteSpace=wrap;html=1;" vertex="1" parent="1">
          <mxGeometry x="110" y="440" width="620" height="60" as="geometry" />
        </mxCell>
        <mxCell id="aY2KS8_h0rCA1LLG4cvc-16" value="" style="rounded=1;whiteSpace=wrap;html=1;" vertex="1" parent="1">
          <mxGeometry x="150" y="525" width="400" height="175" as="geometry" />
        </mxCell>
        <mxCell id="aY2KS8_h0rCA1LLG4cvc-17" value="" style="rounded=0;whiteSpace=wrap;html=1;" vertex="1" parent="1">
          <mxGeometry x="120" y="810" width="600" height="50" as="geometry" />
        </mxCell>
        <mxCell id="aY2KS8_h0rCA1LLG4cvc-18" value="" style="ellipse;whiteSpace=wrap;html=1;aspect=fixed;" vertex="1" parent="1">
          <mxGeometry x="270" y="815" width="40" height="40" as="geometry" />
        </mxCell>
        <mxCell id="aY2KS8_h0rCA1LLG4cvc-19" value="" style="ellipse;whiteSpace=wrap;html=1;aspect=fixed;" vertex="1" parent="1">
          <mxGeometry x="350" y="815" width="40" height="40" as="geometry" />
        </mxCell>
        <mxCell id="aY2KS8_h0rCA1LLG4cvc-20" value="" style="ellipse;whiteSpace=wrap;html=1;aspect=fixed;" vertex="1" parent="1">
          <mxGeometry x="430" y="815" width="40" height="40" as="geometry" />
        </mxCell>
        <mxCell id="aY2KS8_h0rCA1LLG4cvc-21" value="" style="ellipse;whiteSpace=wrap;html=1;aspect=fixed;" vertex="1" parent="1">
          <mxGeometry x="510" y="815" width="40" height="40" as="geometry" />
        </mxCell>
        <mxCell id="aY2KS8_h0rCA1LLG4cvc-22" value="&lt;h1 style=&quot;margin-top: 0px;&quot;&gt;Heading&lt;/h1&gt;&lt;p&gt;Lorem ipsum dolor sit amet, consectetur adipisicing elit, sed do eiusmod tempor incididunt ut labore et dolore magna aliqua.&lt;/p&gt;" style="text;html=1;whiteSpace=wrap;overflow=hidden;rounded=0;" vertex="1" parent="1">
          <mxGeometry x="190" y="550" width="180" height="120" as="geometry" />
        </mxCell>
        <mxCell id="aY2KS8_h0rCA1LLG4cvc-23" value="Text" style="text;html=1;align=center;verticalAlign=middle;whiteSpace=wrap;rounded=0;" vertex="1" parent="1">
          <mxGeometry x="220" y="360" width="60" height="30" as="geometry" />
        </mxCell>
        <mxCell id="aY2KS8_h0rCA1LLG4cvc-24" value="Text" style="text;html=1;align=center;verticalAlign=middle;whiteSpace=wrap;rounded=0;" vertex="1" parent="1">
          <mxGeometry x="390" y="360" width="60" height="30" as="geometry" />
        </mxCell>
        <mxCell id="aY2KS8_h0rCA1LLG4cvc-25" value="Text" style="text;html=1;align=center;verticalAlign=middle;whiteSpace=wrap;rounded=0;" vertex="1" parent="1">
          <mxGeometry x="560" y="360" width="60" height="30" as="geometry" />
        </mxCell>
        <mxCell id="aY2KS8_h0rCA1LLG4cvc-26" value="Text" style="text;html=1;align=center;verticalAlign=middle;whiteSpace=wrap;rounded=0;" vertex="1" parent="1">
          <mxGeometry x="160" y="455" width="60" height="30" as="geometry" />
        </mxCell>
        <mxCell id="aY2KS8_h0rCA1LLG4cvc-27" value="Text" style="text;html=1;align=center;verticalAlign=middle;whiteSpace=wrap;rounded=0;" vertex="1" parent="1">
          <mxGeometry x="320" y="455" width="60" height="30" as="geometry" />
        </mxCell>
        <mxCell id="aY2KS8_h0rCA1LLG4cvc-28" value="Text" style="text;html=1;align=center;verticalAlign=middle;whiteSpace=wrap;rounded=0;" vertex="1" parent="1">
          <mxGeometry x="490" y="455" width="60" height="30" as="geometry" />
        </mxCell>
        <mxCell id="aY2KS8_h0rCA1LLG4cvc-29" value="Text" style="text;html=1;align=center;verticalAlign=middle;whiteSpace=wrap;rounded=0;" vertex="1" parent="1">
          <mxGeometry x="640" y="455" width="60" height="30" as="geometry" />
        </mxCell>
        <mxCell id="aY2KS8_h0rCA1LLG4cvc-31" value="" style="endArrow=none;html=1;rounded=0;exitX=0.261;exitY=0.967;exitDx=0;exitDy=0;exitPerimeter=0;" edge="1" parent="1" source="aY2KS8_h0rCA1LLG4cvc-13">
          <mxGeometry width="50" height="50" relative="1" as="geometry">
            <mxPoint x="230" y="500" as="sourcePoint" />
            <mxPoint x="270" y="440" as="targetPoint" />
            <Array as="points">
              <mxPoint x="270" y="440" />
            </Array>
          </mxGeometry>
        </mxCell>
        <mxCell id="aY2KS8_h0rCA1LLG4cvc-32" value="" style="endArrow=none;html=1;rounded=0;entryX=0.194;entryY=-0.017;entryDx=0;entryDy=0;entryPerimeter=0;" edge="1" parent="1">
          <mxGeometry width="50" height="50" relative="1" as="geometry">
            <mxPoint x="419.5" y="501" as="sourcePoint" />
            <mxPoint x="419.5" y="440" as="targetPoint" />
            <Array as="points" />
          </mxGeometry>
        </mxCell>
        <mxCell id="aY2KS8_h0rCA1LLG4cvc-33" value="" style="endArrow=none;html=1;rounded=0;entryX=0.194;entryY=-0.017;entryDx=0;entryDy=0;entryPerimeter=0;" edge="1" parent="1">
          <mxGeometry width="50" height="50" relative="1" as="geometry">
            <mxPoint x="599" y="500" as="sourcePoint" />
            <mxPoint x="599" y="439" as="targetPoint" />
            <Array as="points" />
          </mxGeometry>
        </mxCell>
      </root>
    </mxGraphModel>
  </diagram>
</mxfile>
